<svg width="16" height="16" viewBox="0 0 28 26" fill="none" xmlns="http://www.w3.org/2000/svg">
<path d="M13.9947 0C6.26662 0 0 4.97177 0 11.1072C0 15.074 2.6181 18.5489 6.56102 20.5218L5.14157 25.6258C5.14157 25.6258 5.11528 25.8638 5.26774 25.9537C5.4202 26.0436 5.60421 25.9749 5.60421 25.9749C6.04581 25.9114 10.7037 22.6163 11.5186 22.045C12.3229 22.1614 13.1588 22.2196 14.0053 22.2196C21.7334 22.2196 28 17.2478 28 11.1124C28 4.97706 21.7229 0 13.9947 0Z" fill="white"/>
<path d="M6.25605 14.9786C5.80919 14.9786 5.44644 14.6296 5.44644 14.2011V9.37218H4.1847C3.74835 9.37218 3.39612 9.01781 3.39612 8.57881C3.39612 8.13981 3.75361 7.78544 4.1847 7.78544H8.32214C8.75849 7.78544 9.11073 8.13981 9.11073 8.57881C9.11073 9.01781 8.75323 9.37218 8.32214 9.37218H7.06041V14.2011C7.06041 14.6243 6.6924 14.9786 6.25079 14.9786H6.25605ZM13.3375 14.9681C13.0011 14.9681 12.7435 14.8305 12.6646 14.6084L12.2651 13.5506H9.80468L9.40513 14.6084C9.32627 14.8305 9.06867 14.9681 8.7322 14.9681C8.55346 14.9681 8.37997 14.931 8.217 14.8623C7.99619 14.7565 7.78065 14.4762 8.02774 13.7093L9.95714 8.59468C10.0938 8.20328 10.5091 7.80131 11.0349 7.79073C11.5606 7.78015 11.9812 8.20328 12.1126 8.59468L14.042 13.7093C14.2891 14.4762 14.0735 14.7671 13.8527 14.8623C13.695 14.9363 13.5163 14.9681 13.3375 14.9681ZM11.8392 12.1119L11.0349 9.80588L10.2305 12.1119H11.8392ZM15.3405 14.8623C14.92 14.8623 14.5677 14.5291 14.5677 14.1218V8.59468C14.5677 8.1451 14.9357 7.78015 15.3931 7.78015C15.8505 7.78015 16.2185 8.15039 16.2185 8.59468V13.3655H17.9324C18.3529 13.3655 18.7052 13.6987 18.7052 14.1059C18.7052 14.5132 18.3582 14.8464 17.9324 14.8464L15.3405 14.8623ZM19.0153 14.1535V8.59997C19.0153 8.15039 19.3833 7.78544 19.825 7.78544C20.2666 7.78544 20.6346 8.15568 20.6346 8.59997V10.3454L22.8952 8.07105C23.144 7.8207 23.6144 7.84265 23.8993 8.12923C24.1669 8.39844 24.2365 8.85348 23.9571 9.13946L22.1066 10.9906L24.0938 13.6352C24.3609 13.9791 24.2961 14.5147 23.9361 14.7671C23.5812 15.0315 23.0599 14.9434 22.8058 14.6084L20.9132 12.0855L20.6346 12.3658V14.1377C20.6346 15.1931 19.0153 15.2337 19.0153 14.1535Z" fill="#3C66BA"/>
</svg>
