<svg width="120" height="31" viewBox="0 0 120 31" fill="none" xmlns="http://www.w3.org/2000/svg">
<path d="M2.2629 4.77525C2.2629 2.92256 3.21571 1.99621 5.12131 1.99621H10.6396C12.5717 1.99621 13.5377 2.92256 13.5377 4.77525V8.68939C13.5377 10.6204 12.5717 11.5859 10.6396 11.5859H9.84562C9.50155 11.8729 9.32952 12.3295 9.32952 12.9558V13.5038C9.32952 14.9651 10.0574 15.6957 11.513 15.6957H14.2126C15.3507 15.6957 15.9197 16.0088 15.9197 16.6351C15.9197 17.2353 15.3375 17.5354 14.1729 17.5354H1.6277C0.542568 17.5354 0 17.2222 0 16.596C0 15.9958 0.542568 15.6957 1.6277 15.6957H4.40671C5.83591 15.6957 6.55051 14.9651 6.55051 13.5038V12.9558C6.55051 12.3295 6.36525 11.8729 5.99471 11.5859H5.12131C3.21571 11.5859 2.2629 10.6334 2.2629 8.72853V4.77525ZM5.12131 5.98864V7.59343C5.12131 9.05471 5.86238 9.78535 7.34452 9.78535H8.49582C9.95149 9.78535 10.6793 9.05471 10.6793 7.59343V5.98864C10.6793 4.47517 9.95149 3.71843 8.49582 3.71843H7.34452C5.86238 3.71843 5.12131 4.47517 5.12131 5.98864Z" fill="white"/>
<path d="M22.3068 4.81439C22.3068 2.90951 23.2861 1.95707 25.2446 1.95707H31.9142C33.0258 1.95707 33.5816 2.24411 33.5816 2.81818C33.5816 3.39225 33.0126 3.67929 31.8745 3.67929H27.7457C26.1048 3.67929 25.2843 4.64478 25.2843 6.57576V7.24116C25.2843 8.93729 26.1048 9.78535 27.7457 9.78535H31.8745C33.0126 9.78535 33.5816 10.0724 33.5816 10.6465C33.5816 11.2466 33.0258 11.5467 31.9142 11.5467H25.2446C23.2861 11.5467 22.3068 10.5682 22.3068 8.61111V4.81439ZM20.0439 16.5568C20.0439 15.9827 20.6262 15.6957 21.7907 15.6957H34.2962C35.4078 15.6957 35.9636 15.9958 35.9636 16.596C35.9636 17.2222 35.4078 17.5354 34.2962 17.5354H31.4775C30.1277 17.5354 29.4528 18.3182 29.4528 19.8838V20.8232C29.4528 22.3628 28.9764 23.1326 28.0236 23.1326C26.9914 23.1326 26.4753 22.3628 26.4753 20.8232V19.8838C26.4753 18.3182 25.8401 17.5354 24.5697 17.5354H21.8304C20.6394 17.5354 20.0439 17.2092 20.0439 16.5568Z" fill="white"/>
<path d="M48.1469 0C48.8615 0 49.5629 0.156565 50.251 0.469695C50.9391 0.756733 51.5346 1.16119 52.0375 1.68308C52.5668 2.17887 52.9903 2.76599 53.3079 3.44444C53.652 4.12289 53.824 4.84049 53.824 5.59722C53.824 6.38005 53.652 7.11069 53.3079 7.78914C52.9903 8.46759 52.5668 9.05471 52.0375 9.5505C51.5346 10.0202 50.9391 10.4116 50.251 10.7247C49.5629 11.0118 48.8615 11.1553 48.1469 11.1553C47.3529 11.1553 46.6118 11.0118 45.9237 10.7247C45.262 10.4116 44.6665 10.0072 44.1372 9.51136C43.6343 9.01557 43.2373 8.42845 42.9462 7.75C42.655 7.07155 42.5095 6.35396 42.5095 5.59722C42.5095 4.89268 42.655 4.20118 42.9462 3.52273C43.2638 2.84427 43.674 2.24411 44.1769 1.72222C44.7062 1.20034 45.3017 0.782827 45.9634 0.469695C46.6515 0.156565 47.3794 0 48.1469 0ZM51.3626 5.59722C51.3626 5.17971 51.27 4.7883 51.0847 4.42298C50.8994 4.05766 50.6612 3.73148 50.3701 3.44444C50.079 3.15741 49.7349 2.9356 49.3379 2.77904C48.9674 2.59638 48.5704 2.50505 48.1469 2.50505C47.6176 2.50505 47.1544 2.60943 46.7574 2.81818C46.3604 3.00084 46.0296 3.24874 45.7649 3.56187C45.5267 3.84891 45.3282 4.17508 45.1694 4.5404C45.0371 4.87963 44.9709 5.2319 44.9709 5.59722C44.9709 6.45833 45.262 7.20202 45.8443 7.82828C46.453 8.42845 47.2206 8.72853 48.1469 8.72853C48.491 8.72853 48.8483 8.6633 49.2188 8.53283C49.6158 8.37626 49.9731 8.16751 50.2907 7.90656C50.6083 7.61953 50.8597 7.29335 51.045 6.92803C51.2567 6.53661 51.3626 6.09301 51.3626 5.59722ZM61.3273 5.6755V18.9444C61.3273 20.5101 60.8377 21.2929 59.8584 21.2929C58.7997 21.2929 58.2704 20.5101 58.2704 18.9444V5.6755C58.2704 4.13594 58.7865 3.36616 59.8187 3.36616C60.8244 3.36616 61.3273 4.13594 61.3273 5.6755ZM43.105 14.9912H54.1813C55.3723 14.9912 55.9678 15.3043 55.9678 15.9306C55.9678 16.5046 55.3723 16.7917 54.1813 16.7917H43.105C41.9669 16.7917 41.3979 16.5046 41.3979 15.9306C41.3979 15.3043 41.9669 14.9912 43.105 14.9912Z" fill="white"/>
<path d="M81.3287 8.2197C81.3287 8.61111 81.3817 8.96338 81.4875 9.27651C81.6199 9.58964 81.8448 9.88973 82.1624 10.1768L83.9092 11.9773C84.2004 12.3165 84.4253 12.6035 84.5841 12.8384C84.7694 13.0732 84.8488 13.295 84.8223 13.5038C84.8223 13.7386 84.7297 13.9604 84.5444 14.1692C84.3592 14.3779 84.1607 14.4823 83.9489 14.4823C83.6578 14.4823 83.3534 14.3779 83.0358 14.1692C82.7182 13.9604 82.3609 13.6734 81.9639 13.3081L81.0111 12.4078C80.5612 12.0164 80.1245 11.8207 79.701 11.8207C79.4363 11.7946 79.1849 11.8468 78.9467 11.9773C78.735 12.0816 78.5232 12.2382 78.3115 12.447L77.1999 13.3864C76.4324 14.1953 75.7839 14.5997 75.2546 14.5997C75.0429 14.5997 74.8179 14.4954 74.5797 14.2866C74.368 14.0518 74.2621 13.8169 74.2621 13.5821C74.2356 13.3733 74.315 13.1515 74.5003 12.9167C74.6856 12.6557 74.9238 12.3556 75.2149 12.0164L77.1602 10.0593C77.7425 9.48527 78.0336 8.84596 78.0336 8.14141V5.94949C78.0336 4.38384 78.5762 3.60101 79.6613 3.60101C80.7729 3.60101 81.3287 4.38384 81.3287 5.94949V8.2197ZM88.9908 11.3119C88.9908 10.0072 88.4218 9.3548 87.2837 9.3548H86.5691C85.2723 9.3548 84.6238 9.01557 84.6238 8.33712C84.6238 7.65867 85.2326 7.31944 86.45 7.31944H87.1646C87.5087 7.31944 87.8925 7.17592 88.3159 6.88889C88.7394 6.57576 88.9511 6.22348 88.9511 5.83207V3.09217C88.9511 1.86574 89.3614 1.25252 90.1818 1.25252C91.0817 1.25252 91.5316 2.03535 91.5316 3.60101V13.8561C91.5316 15.4478 91.0949 16.2437 90.2215 16.2437C89.4011 16.2437 88.9908 15.4217 88.9908 13.7778V11.3119ZM94.5489 3.60101C94.5489 2.03535 95.012 1.25252 95.9383 1.25252C96.8912 1.25252 97.3676 2.03535 97.3676 3.60101V13.8561C97.3676 15.4478 96.8779 16.2437 95.8987 16.2437C94.9988 16.2437 94.5489 15.4478 94.5489 13.8561V3.60101ZM88.832 18.7879C88.832 18.2138 89.454 17.9268 90.6979 17.9268H96.6529C98.3997 17.9268 99.2732 18.7879 99.2732 20.5101V22.3889C99.2732 24.2938 98.3601 25.2462 96.5339 25.2462H93.8342C92.4315 25.2462 91.7301 25.8855 91.7301 27.1641V27.5164C91.7301 28.7167 92.4315 29.3169 93.8342 29.3169H97.4072C98.6512 29.3169 99.2732 29.617 99.2732 30.2172C99.2732 30.7391 98.6644 31 97.447 31H91.4522C89.6525 31 88.7526 30.0606 88.7526 28.1818V26.4987C88.7526 24.5678 89.6525 23.6023 91.4522 23.6023H94.2312C95.634 23.6023 96.3354 23.0151 96.3354 21.8409V21.4886C96.3354 20.2361 95.634 19.6098 94.2312 19.6098H90.7773C89.4805 19.6098 88.832 19.3359 88.832 18.7879Z" fill="white"/>
<path d="M102.294 3.01389C102.294 2.43981 102.81 2.15278 103.842 2.15278H109.36C111.107 2.15278 111.981 2.92256 111.981 4.46212V8.37626C111.981 9.15909 111.756 9.73316 111.306 10.0985C110.856 10.4638 110.353 10.6465 109.797 10.6465H107.455C105.999 10.6465 105.271 11.4162 105.271 12.9558V13.5429C105.271 15.0564 105.986 15.8131 107.415 15.8131H110.472C111.478 15.8131 111.981 16.1002 111.981 16.6742C111.981 17.2483 111.478 17.5354 110.472 17.5354H104.993C103.167 17.5354 102.254 16.6351 102.254 14.8346V11.1944C102.254 9.68097 103.167 8.92424 104.993 8.92424H106.899C108.275 8.92424 108.963 8.1936 108.963 6.73232V6.06692C108.963 4.57955 108.275 3.83586 106.899 3.83586H103.961C102.85 3.83586 102.294 3.56187 102.294 3.01389ZM117.062 15.0303C117.062 13.8039 116.453 13.1907 115.236 13.1907H114.005C113.449 13.1907 113.079 13.0993 112.894 12.9167C112.708 12.7079 112.616 12.4339 112.616 12.0947C112.616 11.9381 112.682 11.7163 112.814 11.4293C112.973 11.1423 113.37 10.9987 114.005 10.9987H115.236C116.453 10.9987 117.062 10.3725 117.062 9.11995V5.32323C117.062 4.77525 117.155 4.29251 117.34 3.875C117.552 3.45749 117.962 3.24874 118.571 3.24874C119.047 3.24874 119.405 3.44444 119.643 3.83586C119.881 4.22727 120 4.69697 120 5.24495V19.1402C120 19.8708 119.841 20.3927 119.524 20.7058C119.232 20.9928 118.902 21.1364 118.531 21.1364C117.552 21.1364 117.062 20.4579 117.062 19.101V15.0303Z" fill="white"/>
</svg>
