<svg width="14" height="14" viewBox="0 0 14 14" fill="none" xmlns="http://www.w3.org/2000/svg">
<path d="M12.0818 1.01667L11.0651 0L10.0484 1.01667L9.03177 0L8.0151 1.01667L6.99844 0L5.98177 1.01667L4.9651 0L3.94844 1.01667L2.93177 0V9.48889H0.898438V11.5222C0.898438 12.6473 1.80666 13.5556 2.93177 13.5556H11.0651C12.1902 13.5556 13.0984 12.6473 13.0984 11.5222V0L12.0818 1.01667ZM9.03177 12.2H2.93177C2.55899 12.2 2.25399 11.895 2.25399 11.5222V10.8444H9.03177V12.2ZM11.7429 11.5222C11.7429 11.895 11.4379 12.2 11.0651 12.2C10.6923 12.2 10.3873 11.895 10.3873 11.5222V9.48889H4.28733V2.03333H11.7429V11.5222Z" fill="#3C66BA"/>
</svg>
