<svg width="123" height="92" viewBox="0 0 123 92" fill="none" xmlns="http://www.w3.org/2000/svg">
<g filter="url(#filter0_d)">
<path d="M4.7625 45.0469L8.98125 1.6875H50.2898V15.8672H22.575L21.0516 34.1484C24.2547 32 27.5555 30.9258 30.9539 30.9258C37.9852 30.9258 43.3953 33.4258 47.1844 38.4258C51.0125 43.4258 52.9266 50.4961 52.9266 59.6367C52.9266 68.1914 50.6609 75.0859 46.1297 80.3203C41.5984 85.5547 35.5437 88.1719 27.9656 88.1719C23.4734 88.1719 19.3133 87.1172 15.4852 85.0078C11.657 82.8594 8.62968 79.8906 6.40312 76.1016C4.21562 72.3125 3.10234 68.0156 3.06328 63.2109H19.4695C19.743 66.7656 20.6219 69.5195 22.1062 71.4727C23.5906 73.4258 25.5047 74.4023 27.8484 74.4023C30.5828 74.4023 32.6922 73.0938 34.1766 70.4766C35.6609 67.8203 36.4031 63.875 36.4031 58.6406C36.4031 53.7188 35.5047 50.0078 33.7078 47.5078C31.95 45.0078 29.4695 43.7578 26.2664 43.7578C23.1414 43.7578 20.7195 44.832 19.0008 46.9805L17.9461 48.4453L4.7625 45.0469ZM122.937 51.7266C122.937 63.5234 120.788 72.5469 116.491 78.7969C112.234 85.0469 106.14 88.1719 98.2102 88.1719C90.3586 88.1719 84.2844 85.1445 79.9875 79.0898C75.7297 72.9961 73.5227 64.2852 73.3664 52.957V36.8438C73.3664 25.0859 75.4953 16.1016 79.7531 9.89062C84.0109 3.64062 90.1242 0.515625 98.093 0.515625C106.062 0.515625 112.175 3.60156 116.433 9.77344C120.691 15.9453 122.859 24.7539 122.937 36.1992V51.7266ZM106.296 34.4414C106.296 27.7227 105.632 22.6836 104.304 19.3242C102.976 15.9648 100.905 14.2852 98.093 14.2852C92.8195 14.2852 90.0852 20.4375 89.8898 32.7422V54.0117C89.8898 60.8867 90.5539 66.0039 91.882 69.3633C93.2492 72.7227 95.3586 74.4023 98.2102 74.4023C100.905 74.4023 102.898 72.8398 104.187 69.7148C105.515 66.5508 106.218 61.7266 106.296 55.2422V34.4414Z" fill="#6E9DFD"/>
</g>
<defs>
<filter id="filter0_d" x="0.0634766" y="0.515625" width="122.873" height="90.6562" filterUnits="userSpaceOnUse" color-interpolation-filters="sRGB">
<feFlood flood-opacity="0" result="BackgroundImageFix"/>
<feColorMatrix in="SourceAlpha" type="matrix" values="0 0 0 0 0 0 0 0 0 0 0 0 0 0 0 0 0 0 127 0"/>
<feOffset dx="-3" dy="3"/>
<feColorMatrix type="matrix" values="0 0 0 0 0.233941 0 0 0 0 0.399016 0 0 0 0 0.729167 0 0 0 1 0"/>
<feBlend mode="normal" in2="BackgroundImageFix" result="effect1_dropShadow"/>
<feBlend mode="normal" in="SourceGraphic" in2="effect1_dropShadow" result="shape"/>
</filter>
</defs>
</svg>
