<svg width="370" height="83" viewBox="0 0 370 83" fill="none" xmlns="http://www.w3.org/2000/svg">
<rect x="24.5" y="16.5" width="321" height="66" rx="23.5" fill="white" stroke="#6E9DFD"/>
<path d="M229.147 47.4819H229.996L230.231 45.3359H232.362L232.025 47.4819H232.919V48.6538H231.835L231.688 49.606H232.919V50.7778H231.498L230.677 56H228.495L227.982 51.7666L227.469 56H225.287L224.459 50.7778H223.104V49.606H224.276L224.122 48.6538H223.104V47.4819H223.939L223.602 45.3359H225.734L225.968 47.4819H226.832L227.067 45.3359H228.905L229.147 47.4819ZM226.195 49.606H226.598L226.7 48.6538H226.092L226.195 49.606ZM229.381 49.606H229.769L229.872 48.6538H229.279L229.381 49.606ZM226.327 50.7778L226.4 51.4443L226.473 50.7778H226.327ZM229.513 50.7778L229.579 51.3638L229.645 50.7778H229.513Z" fill="#96A9CF"/>
<path d="M241.504 56H238.73V45.1406L236.025 46.1855V43.8809L241.211 41.7617H241.504V56ZM255.399 50.1211C255.399 52.0872 255.041 53.5911 254.325 54.6328C253.615 55.6745 252.599 56.1953 251.278 56.1953C249.969 56.1953 248.957 55.6908 248.241 54.6816C247.531 53.666 247.163 52.2142 247.137 50.3262V47.6406C247.137 45.681 247.492 44.1836 248.202 43.1484C248.911 42.1068 249.93 41.5859 251.258 41.5859C252.586 41.5859 253.605 42.1003 254.315 43.1289C255.024 44.1576 255.386 45.6257 255.399 47.5332V50.1211ZM252.625 47.2402C252.625 46.1204 252.515 45.2806 252.293 44.7207C252.072 44.1608 251.727 43.8809 251.258 43.8809C250.379 43.8809 249.924 44.9062 249.891 46.957V50.502C249.891 51.6478 250.002 52.5007 250.223 53.0605C250.451 53.6204 250.802 53.9004 251.278 53.9004C251.727 53.9004 252.059 53.64 252.274 53.1191C252.495 52.5918 252.612 51.7878 252.625 50.707V47.2402ZM259.753 59.584L258.278 58.8125L258.649 58.1191C259.066 57.3509 259.281 56.5762 259.294 55.7949V53.5977H261.696L261.686 55.5605C261.68 56.2507 261.504 56.9668 261.159 57.709C260.814 58.4512 260.345 59.0762 259.753 59.584ZM273.638 50.1211C273.638 52.0872 273.28 53.5911 272.564 54.6328C271.854 55.6745 270.838 56.1953 269.517 56.1953C268.208 56.1953 267.196 55.6908 266.48 54.6816C265.77 53.666 265.402 52.2142 265.376 50.3262V47.6406C265.376 45.681 265.731 44.1836 266.441 43.1484C267.15 42.1068 268.169 41.5859 269.497 41.5859C270.825 41.5859 271.844 42.1003 272.554 43.1289C273.264 44.1576 273.625 45.6257 273.638 47.5332V50.1211ZM270.864 47.2402C270.864 46.1204 270.754 45.2806 270.532 44.7207C270.311 44.1608 269.966 43.8809 269.497 43.8809C268.618 43.8809 268.163 44.9062 268.13 46.957V50.502C268.13 51.6478 268.241 52.5007 268.462 53.0605C268.69 53.6204 269.042 53.9004 269.517 53.9004C269.966 53.9004 270.298 53.64 270.513 53.1191C270.734 52.5918 270.851 51.7878 270.864 50.707V47.2402ZM285.355 50.1211C285.355 52.0872 284.997 53.5911 284.281 54.6328C283.571 55.6745 282.556 56.1953 281.234 56.1953C279.925 56.1953 278.913 55.6908 278.197 54.6816C277.487 53.666 277.119 52.2142 277.093 50.3262V47.6406C277.093 45.681 277.448 44.1836 278.158 43.1484C278.867 42.1068 279.886 41.5859 281.214 41.5859C282.543 41.5859 283.561 42.1003 284.271 43.1289C284.981 44.1576 285.342 45.6257 285.355 47.5332V50.1211ZM282.582 47.2402C282.582 46.1204 282.471 45.2806 282.25 44.7207C282.028 44.1608 281.683 43.8809 281.214 43.8809C280.336 43.8809 279.88 44.9062 279.847 46.957V50.502C279.847 51.6478 279.958 52.5007 280.179 53.0605C280.407 53.6204 280.759 53.9004 281.234 53.9004C281.683 53.9004 282.015 53.64 282.23 53.1191C282.451 52.5918 282.569 51.7878 282.582 50.707V47.2402ZM297.072 50.1211C297.072 52.0872 296.714 53.5911 295.998 54.6328C295.288 55.6745 294.273 56.1953 292.951 56.1953C291.643 56.1953 290.63 55.6908 289.914 54.6816C289.204 53.666 288.837 52.2142 288.811 50.3262V47.6406C288.811 45.681 289.165 44.1836 289.875 43.1484C290.585 42.1068 291.604 41.5859 292.932 41.5859C294.26 41.5859 295.279 42.1003 295.988 43.1289C296.698 44.1576 297.059 45.6257 297.072 47.5332V50.1211ZM294.299 47.2402C294.299 46.1204 294.188 45.2806 293.967 44.7207C293.745 44.1608 293.4 43.8809 292.932 43.8809C292.053 43.8809 291.597 44.9062 291.564 46.957V50.502C291.564 51.6478 291.675 52.5007 291.896 53.0605C292.124 53.6204 292.476 53.9004 292.951 53.9004C293.4 53.9004 293.732 53.64 293.947 53.1191C294.169 52.5918 294.286 51.7878 294.299 50.707V47.2402Z" fill="black"/>
<path d="M73.7143 54.4444C73.7143 55.3 74.3571 56 75.1429 56H80.8571C81.6429 56 82.2857 55.3 82.2857 54.4444V45.1111H73.7143V54.4444ZM83 42.7778H80.5L79.7857 42H76.2143L75.5 42.7778H73V44.3333H83V42.7778Z" fill="#757575"/>
<path d="M115.609 54.5H113.391V45.8125L111.227 46.6484V44.8047L115.375 43.1094H115.609V54.5ZM126.725 49.7969C126.725 51.3698 126.439 52.5729 125.866 53.4062C125.298 54.2396 124.486 54.6562 123.428 54.6562C122.382 54.6562 121.572 54.2526 120.999 53.4453C120.431 52.6328 120.137 51.4714 120.116 49.9609V47.8125C120.116 46.2448 120.4 45.0469 120.967 44.2188C121.535 43.3854 122.35 42.9688 123.413 42.9688C124.475 42.9688 125.29 43.3802 125.858 44.2031C126.426 45.026 126.715 46.2005 126.725 47.7266V49.7969ZM124.507 47.4922C124.507 46.5964 124.418 45.9245 124.241 45.4766C124.064 45.0286 123.788 44.8047 123.413 44.8047C122.71 44.8047 122.345 45.625 122.319 47.2656V50.1016C122.319 51.0182 122.408 51.7005 122.585 52.1484C122.767 52.5964 123.048 52.8203 123.428 52.8203C123.788 52.8203 124.053 52.612 124.225 52.1953C124.402 51.7734 124.496 51.1302 124.507 50.2656V47.4922ZM142.34 50.7109C142.283 52.0078 141.918 52.9896 141.246 53.6562C140.574 54.3229 139.626 54.6562 138.403 54.6562C137.116 54.6562 136.129 54.2344 135.442 53.3906C134.759 52.5417 134.418 51.3333 134.418 49.7656V47.8516C134.418 46.2891 134.772 45.0859 135.481 44.2422C136.189 43.3932 137.173 42.9688 138.434 42.9688C139.673 42.9688 140.613 43.3151 141.254 44.0078C141.9 44.7005 142.267 45.6953 142.356 46.9922H140.051C140.03 46.1901 139.905 45.638 139.676 45.3359C139.452 45.0286 139.038 44.875 138.434 44.875C137.819 44.875 137.384 45.0911 137.129 45.5234C136.874 45.9505 136.738 46.6562 136.723 47.6406V49.7891C136.723 50.9193 136.848 51.6953 137.098 52.1172C137.353 52.5391 137.788 52.75 138.403 52.75C139.007 52.75 139.423 52.6042 139.653 52.3125C139.882 52.0156 140.012 51.4818 140.043 50.7109H142.34ZM148.479 50.3438H147.339V54.5H145.042V43.125H148.706C149.857 43.125 150.745 43.4245 151.37 44.0234C152 44.6172 152.315 45.4635 152.315 46.5625C152.315 48.0729 151.766 49.1302 150.667 49.7344L152.659 54.3906V54.5H150.19L148.479 50.3438ZM147.339 48.4297H148.643C149.102 48.4297 149.446 48.2786 149.675 47.9766C149.904 47.6693 150.018 47.2604 150.018 46.75C150.018 45.6094 149.573 45.0391 148.682 45.0391H147.339V48.4297ZM161.048 49.5781H157.47V52.5938H161.705V54.5H155.173V43.125H161.689V45.0391H157.47V47.7266H161.048V49.5781ZM164.313 54.5V43.125H167.321C168.649 43.125 169.706 43.5469 170.493 44.3906C171.284 45.2344 171.688 46.3906 171.703 47.8594V49.7031C171.703 51.1979 171.308 52.3724 170.516 53.2266C169.729 54.0755 168.644 54.5 167.258 54.5H164.313ZM166.61 45.0391V52.5938H167.297C168.063 52.5938 168.602 52.3932 168.914 51.9922C169.227 51.5859 169.391 50.888 169.407 49.8984V47.9219C169.407 46.8594 169.258 46.1198 168.961 45.7031C168.664 45.2812 168.159 45.0599 167.446 45.0391H166.61ZM177.038 54.5H174.741V43.125H177.038V54.5ZM187.381 45.0391H184.568V54.5H182.263V45.0391H179.498V43.125H187.381V45.0391ZM194.661 51.5156C194.661 51.0521 194.541 50.7031 194.301 50.4688C194.067 50.2292 193.637 49.9818 193.012 49.7266C191.872 49.2943 191.051 48.7891 190.551 48.2109C190.051 47.6276 189.801 46.9401 189.801 46.1484C189.801 45.1901 190.14 44.4219 190.817 43.8438C191.499 43.2604 192.364 42.9688 193.411 42.9688C194.109 42.9688 194.731 43.1172 195.278 43.4141C195.825 43.7057 196.244 44.1198 196.536 44.6562C196.832 45.1927 196.981 45.8021 196.981 46.4844H194.692C194.692 45.9531 194.577 45.5495 194.348 45.2734C194.124 44.9922 193.799 44.8516 193.372 44.8516C192.971 44.8516 192.658 44.9714 192.434 45.2109C192.21 45.4453 192.098 45.763 192.098 46.1641C192.098 46.4766 192.223 46.7604 192.473 47.0156C192.723 47.2656 193.166 47.526 193.801 47.7969C194.911 48.1979 195.715 48.6901 196.215 49.2734C196.721 49.8568 196.973 50.599 196.973 51.5C196.973 52.4896 196.658 53.263 196.028 53.8203C195.398 54.3776 194.541 54.6562 193.457 54.6562C192.723 54.6562 192.054 54.5052 191.45 54.2031C190.846 53.901 190.372 53.4688 190.028 52.9062C189.689 52.3438 189.52 51.6797 189.52 50.9141H191.825C191.825 51.5703 191.952 52.0469 192.207 52.3438C192.463 52.6406 192.879 52.7891 193.457 52.7891C194.26 52.7891 194.661 52.3646 194.661 51.5156Z" fill="#3C66BA"/>
<path d="M208.82 49.8672V54.5H207.859V43.125H211.734C212.917 43.125 213.849 43.4271 214.531 44.0312C215.219 44.6354 215.562 45.4661 215.562 46.5234C215.562 47.5911 215.232 48.4167 214.57 49C213.914 49.5781 212.961 49.8672 211.711 49.8672H208.82ZM208.82 49.0547H211.734C212.667 49.0547 213.378 48.8333 213.867 48.3906C214.357 47.9479 214.602 47.3307 214.602 46.5391C214.602 45.7526 214.357 45.1276 213.867 44.6641C213.383 44.1953 212.693 43.9557 211.797 43.9453H208.82V49.0547ZM222.742 54.5C222.648 54.2344 222.589 53.8411 222.562 53.3203C222.234 53.7474 221.815 54.0781 221.305 54.3125C220.799 54.5417 220.263 54.6562 219.695 54.6562C218.883 54.6562 218.224 54.4297 217.719 53.9766C217.219 53.5234 216.969 52.9505 216.969 52.2578C216.969 51.4349 217.31 50.7839 217.992 50.3047C218.68 49.8255 219.635 49.5859 220.859 49.5859H222.555V48.625C222.555 48.0208 222.367 47.5469 221.992 47.2031C221.622 46.8542 221.081 46.6797 220.367 46.6797C219.716 46.6797 219.177 46.8464 218.75 47.1797C218.323 47.513 218.109 47.9141 218.109 48.3828L217.172 48.375C217.172 47.7031 217.484 47.1224 218.109 46.6328C218.734 46.138 219.503 45.8906 220.414 45.8906C221.357 45.8906 222.099 46.1276 222.641 46.6016C223.188 47.0703 223.469 47.7266 223.484 48.5703V52.5703C223.484 53.388 223.57 54 223.742 54.4062V54.5H222.742ZM219.805 53.8281C220.43 53.8281 220.987 53.6771 221.477 53.375C221.971 53.0729 222.331 52.6693 222.555 52.1641V50.3047H220.883C219.951 50.3151 219.221 50.487 218.695 50.8203C218.169 51.1484 217.906 51.6016 217.906 52.1797C217.906 52.6536 218.081 53.0469 218.43 53.3594C218.784 53.6719 219.242 53.8281 219.805 53.8281ZM229.109 53.8672C229.76 53.8672 230.305 53.6849 230.742 53.3203C231.185 52.9505 231.424 52.474 231.461 51.8906H232.359C232.333 52.4062 232.172 52.8776 231.875 53.3047C231.578 53.7266 231.182 54.0573 230.688 54.2969C230.198 54.5365 229.672 54.6562 229.109 54.6562C228 54.6562 227.12 54.2708 226.469 53.5C225.823 52.7292 225.5 51.6927 225.5 50.3906V50.1094C225.5 49.276 225.646 48.5391 225.938 47.8984C226.229 47.2578 226.646 46.763 227.188 46.4141C227.734 46.0651 228.372 45.8906 229.102 45.8906C230.029 45.8906 230.792 46.1667 231.391 46.7188C231.995 47.2708 232.318 47.9974 232.359 48.8984H231.461C231.419 48.237 231.18 47.7031 230.742 47.2969C230.31 46.8906 229.763 46.6875 229.102 46.6875C228.258 46.6875 227.602 46.9922 227.133 47.6016C226.669 48.2109 226.438 49.0651 226.438 50.1641V50.4375C226.438 51.5156 226.669 52.3568 227.133 52.9609C227.602 53.5651 228.26 53.8672 229.109 53.8672ZM236.242 50.2422L235.172 51.2734V54.5H234.234V42.5H235.172V50.1797L236.055 49.2266L239.289 46.0469H240.469L236.883 49.6094L240.781 54.5H239.664L236.242 50.2422ZM247.414 54.5C247.32 54.2344 247.26 53.8411 247.234 53.3203C246.906 53.7474 246.487 54.0781 245.977 54.3125C245.471 54.5417 244.935 54.6562 244.367 54.6562C243.555 54.6562 242.896 54.4297 242.391 53.9766C241.891 53.5234 241.641 52.9505 241.641 52.2578C241.641 51.4349 241.982 50.7839 242.664 50.3047C243.352 49.8255 244.307 49.5859 245.531 49.5859H247.227V48.625C247.227 48.0208 247.039 47.5469 246.664 47.2031C246.294 46.8542 245.753 46.6797 245.039 46.6797C244.388 46.6797 243.849 46.8464 243.422 47.1797C242.995 47.513 242.781 47.9141 242.781 48.3828L241.844 48.375C241.844 47.7031 242.156 47.1224 242.781 46.6328C243.406 46.138 244.174 45.8906 245.086 45.8906C246.029 45.8906 246.771 46.1276 247.312 46.6016C247.859 47.0703 248.141 47.7266 248.156 48.5703V52.5703C248.156 53.388 248.242 54 248.414 54.4062V54.5H247.414ZM244.477 53.8281C245.102 53.8281 245.659 53.6771 246.148 53.375C246.643 53.0729 247.003 52.6693 247.227 52.1641V50.3047H245.555C244.622 50.3151 243.893 50.487 243.367 50.8203C242.841 51.1484 242.578 51.6016 242.578 52.1797C242.578 52.6536 242.753 53.0469 243.102 53.3594C243.456 53.6719 243.914 53.8281 244.477 53.8281ZM250.281 50.1953C250.281 48.8724 250.573 47.8255 251.156 47.0547C251.745 46.2786 252.542 45.8906 253.547 45.8906C254.698 45.8906 255.573 46.349 256.172 47.2656L256.219 46.0469H257.094V54.3281C257.094 55.4167 256.789 56.2786 256.18 56.9141C255.57 57.5495 254.745 57.8672 253.703 57.8672C253.115 57.8672 252.552 57.7344 252.016 57.4688C251.484 57.2083 251.065 56.8594 250.758 56.4219L251.281 55.8594C251.943 56.6719 252.729 57.0781 253.641 57.0781C254.422 57.0781 255.031 56.8464 255.469 56.3828C255.906 55.9245 256.133 55.2865 256.148 54.4688V53.4062C255.549 54.2396 254.677 54.6562 253.531 54.6562C252.552 54.6562 251.766 54.2656 251.172 53.4844C250.578 52.7031 250.281 51.6484 250.281 50.3203V50.1953ZM251.227 50.3594C251.227 51.4375 251.443 52.2891 251.875 52.9141C252.307 53.5339 252.917 53.8438 253.703 53.8438C254.854 53.8438 255.669 53.3281 256.148 52.2969V48.3672C255.93 47.8255 255.615 47.4141 255.203 47.1328C254.792 46.8464 254.297 46.7031 253.719 46.7031C252.932 46.7031 252.32 47.013 251.883 47.6328C251.445 48.2474 251.227 49.1562 251.227 50.3594ZM262.805 54.6562C262.086 54.6562 261.435 54.4792 260.852 54.125C260.273 53.7708 259.823 53.2786 259.5 52.6484C259.177 52.013 259.016 51.3021 259.016 50.5156V50.1797C259.016 49.3672 259.172 48.6354 259.484 47.9844C259.802 47.3333 260.242 46.8229 260.805 46.4531C261.367 46.0781 261.977 45.8906 262.633 45.8906C263.659 45.8906 264.471 46.2422 265.07 46.9453C265.674 47.6432 265.977 48.599 265.977 49.8125V50.3359H259.945V50.5156C259.945 51.474 260.219 52.2734 260.766 52.9141C261.318 53.5495 262.01 53.8672 262.844 53.8672C263.344 53.8672 263.784 53.776 264.164 53.5938C264.549 53.4115 264.898 53.1198 265.211 52.7188L265.797 53.1641C265.109 54.1589 264.112 54.6562 262.805 54.6562ZM262.633 46.6875C261.93 46.6875 261.336 46.9453 260.852 47.4609C260.372 47.9766 260.081 48.6693 259.977 49.5391H265.047V49.4375C265.021 48.625 264.789 47.9635 264.352 47.4531C263.914 46.9427 263.341 46.6875 262.633 46.6875Z" fill="#96A9CF"/>
<rect x="12.5" y="8.5" width="345" height="66" rx="23.5" fill="white" stroke="#6E9DFD"/>
<path d="M241.147 39.4819H241.996L242.231 37.3359H244.362L244.025 39.4819H244.919V40.6538H243.835L243.688 41.606H244.919V42.7778H243.498L242.677 48H240.495L239.982 43.7666L239.469 48H237.287L236.459 42.7778H235.104V41.606H236.276L236.122 40.6538H235.104V39.4819H235.939L235.602 37.3359H237.734L237.968 39.4819H238.832L239.067 37.3359H240.905L241.147 39.4819ZM238.195 41.606H238.598L238.7 40.6538H238.092L238.195 41.606ZM241.381 41.606H241.769L241.872 40.6538H241.279L241.381 41.606ZM238.327 42.7778L238.4 43.4443L238.473 42.7778H238.327ZM241.513 42.7778L241.579 43.3638L241.645 42.7778H241.513Z" fill="#96A9CF"/>
<path d="M253.504 48H250.73V37.1406L248.025 38.1855V35.8809L253.211 33.7617H253.504V48ZM267.399 42.1211C267.399 44.0872 267.041 45.5911 266.325 46.6328C265.615 47.6745 264.599 48.1953 263.278 48.1953C261.969 48.1953 260.957 47.6908 260.241 46.6816C259.531 45.666 259.163 44.2142 259.137 42.3262V39.6406C259.137 37.681 259.492 36.1836 260.202 35.1484C260.911 34.1068 261.93 33.5859 263.258 33.5859C264.586 33.5859 265.605 34.1003 266.315 35.1289C267.024 36.1576 267.386 37.6257 267.399 39.5332V42.1211ZM264.625 39.2402C264.625 38.1204 264.515 37.2806 264.293 36.7207C264.072 36.1608 263.727 35.8809 263.258 35.8809C262.379 35.8809 261.924 36.9062 261.891 38.957V42.502C261.891 43.6478 262.002 44.5007 262.223 45.0605C262.451 45.6204 262.802 45.9004 263.278 45.9004C263.727 45.9004 264.059 45.64 264.274 45.1191C264.495 44.5918 264.612 43.7878 264.625 42.707V39.2402ZM271.753 51.584L270.278 50.8125L270.649 50.1191C271.066 49.3509 271.281 48.5762 271.294 47.7949V45.5977H273.696L273.686 47.5605C273.68 48.2507 273.504 48.9668 273.159 49.709C272.814 50.4512 272.345 51.0762 271.753 51.584ZM285.638 42.1211C285.638 44.0872 285.28 45.5911 284.564 46.6328C283.854 47.6745 282.838 48.1953 281.517 48.1953C280.208 48.1953 279.196 47.6908 278.48 46.6816C277.77 45.666 277.402 44.2142 277.376 42.3262V39.6406C277.376 37.681 277.731 36.1836 278.441 35.1484C279.15 34.1068 280.169 33.5859 281.497 33.5859C282.825 33.5859 283.844 34.1003 284.554 35.1289C285.264 36.1576 285.625 37.6257 285.638 39.5332V42.1211ZM282.864 39.2402C282.864 38.1204 282.754 37.2806 282.532 36.7207C282.311 36.1608 281.966 35.8809 281.497 35.8809C280.618 35.8809 280.163 36.9062 280.13 38.957V42.502C280.13 43.6478 280.241 44.5007 280.462 45.0605C280.69 45.6204 281.042 45.9004 281.517 45.9004C281.966 45.9004 282.298 45.64 282.513 45.1191C282.734 44.5918 282.851 43.7878 282.864 42.707V39.2402ZM297.355 42.1211C297.355 44.0872 296.997 45.5911 296.281 46.6328C295.571 47.6745 294.556 48.1953 293.234 48.1953C291.925 48.1953 290.913 47.6908 290.197 46.6816C289.487 45.666 289.119 44.2142 289.093 42.3262V39.6406C289.093 37.681 289.448 36.1836 290.158 35.1484C290.867 34.1068 291.886 33.5859 293.214 33.5859C294.543 33.5859 295.561 34.1003 296.271 35.1289C296.981 36.1576 297.342 37.6257 297.355 39.5332V42.1211ZM294.582 39.2402C294.582 38.1204 294.471 37.2806 294.25 36.7207C294.028 36.1608 293.683 35.8809 293.214 35.8809C292.336 35.8809 291.88 36.9062 291.847 38.957V42.502C291.847 43.6478 291.958 44.5007 292.179 45.0605C292.407 45.6204 292.759 45.9004 293.234 45.9004C293.683 45.9004 294.015 45.64 294.23 45.1191C294.451 44.5918 294.569 43.7878 294.582 42.707V39.2402ZM309.072 42.1211C309.072 44.0872 308.714 45.5911 307.998 46.6328C307.288 47.6745 306.273 48.1953 304.951 48.1953C303.643 48.1953 302.63 47.6908 301.914 46.6816C301.204 45.666 300.837 44.2142 300.811 42.3262V39.6406C300.811 37.681 301.165 36.1836 301.875 35.1484C302.585 34.1068 303.604 33.5859 304.932 33.5859C306.26 33.5859 307.279 34.1003 307.988 35.1289C308.698 36.1576 309.059 37.6257 309.072 39.5332V42.1211ZM306.299 39.2402C306.299 38.1204 306.188 37.2806 305.967 36.7207C305.745 36.1608 305.4 35.8809 304.932 35.8809C304.053 35.8809 303.597 36.9062 303.564 38.957V42.502C303.564 43.6478 303.675 44.5007 303.896 45.0605C304.124 45.6204 304.476 45.9004 304.951 45.9004C305.4 45.9004 305.732 45.64 305.947 45.1191C306.169 44.5918 306.286 43.7878 306.299 42.707V39.2402Z" fill="black"/>
<path d="M61.7143 46.4444C61.7143 47.3 62.3571 48 63.1429 48H68.8571C69.6429 48 70.2857 47.3 70.2857 46.4444V37.1111H61.7143V46.4444ZM71 34.7778H68.5L67.7857 34H64.2143L63.5 34.7778H61V36.3333H71V34.7778Z" fill="#757575"/>
<path d="M103.609 46.5H101.391V37.8125L99.2266 38.6484V36.8047L103.375 35.1094H103.609V46.5ZM114.725 41.7969C114.725 43.3698 114.439 44.5729 113.866 45.4062C113.298 46.2396 112.486 46.6562 111.428 46.6562C110.382 46.6562 109.572 46.2526 108.999 45.4453C108.431 44.6328 108.137 43.4714 108.116 41.9609V39.8125C108.116 38.2448 108.4 37.0469 108.967 36.2188C109.535 35.3854 110.35 34.9688 111.413 34.9688C112.475 34.9688 113.29 35.3802 113.858 36.2031C114.426 37.026 114.715 38.2005 114.725 39.7266V41.7969ZM112.507 39.4922C112.507 38.5964 112.418 37.9245 112.241 37.4766C112.064 37.0286 111.788 36.8047 111.413 36.8047C110.71 36.8047 110.345 37.625 110.319 39.2656V42.1016C110.319 43.0182 110.408 43.7005 110.585 44.1484C110.767 44.5964 111.048 44.8203 111.428 44.8203C111.788 44.8203 112.053 44.612 112.225 44.1953C112.402 43.7734 112.496 43.1302 112.507 42.2656V39.4922ZM130.34 42.7109C130.283 44.0078 129.918 44.9896 129.246 45.6562C128.574 46.3229 127.626 46.6562 126.403 46.6562C125.116 46.6562 124.129 46.2344 123.442 45.3906C122.759 44.5417 122.418 43.3333 122.418 41.7656V39.8516C122.418 38.2891 122.772 37.0859 123.481 36.2422C124.189 35.3932 125.173 34.9688 126.434 34.9688C127.673 34.9688 128.613 35.3151 129.254 36.0078C129.9 36.7005 130.267 37.6953 130.356 38.9922H128.051C128.03 38.1901 127.905 37.638 127.676 37.3359C127.452 37.0286 127.038 36.875 126.434 36.875C125.819 36.875 125.384 37.0911 125.129 37.5234C124.874 37.9505 124.738 38.6562 124.723 39.6406V41.7891C124.723 42.9193 124.848 43.6953 125.098 44.1172C125.353 44.5391 125.788 44.75 126.403 44.75C127.007 44.75 127.423 44.6042 127.653 44.3125C127.882 44.0156 128.012 43.4818 128.043 42.7109H130.34ZM136.479 42.3438H135.339V46.5H133.042V35.125H136.706C137.857 35.125 138.745 35.4245 139.37 36.0234C140 36.6172 140.315 37.4635 140.315 38.5625C140.315 40.0729 139.766 41.1302 138.667 41.7344L140.659 46.3906V46.5H138.19L136.479 42.3438ZM135.339 40.4297H136.643C137.102 40.4297 137.446 40.2786 137.675 39.9766C137.904 39.6693 138.018 39.2604 138.018 38.75C138.018 37.6094 137.573 37.0391 136.682 37.0391H135.339V40.4297ZM149.048 41.5781H145.47V44.5938H149.705V46.5H143.173V35.125H149.689V37.0391H145.47V39.7266H149.048V41.5781ZM152.313 46.5V35.125H155.321C156.649 35.125 157.706 35.5469 158.493 36.3906C159.284 37.2344 159.688 38.3906 159.703 39.8594V41.7031C159.703 43.1979 159.308 44.3724 158.516 45.2266C157.729 46.0755 156.644 46.5 155.258 46.5H152.313ZM154.61 37.0391V44.5938H155.297C156.063 44.5938 156.602 44.3932 156.914 43.9922C157.227 43.5859 157.391 42.888 157.407 41.8984V39.9219C157.407 38.8594 157.258 38.1198 156.961 37.7031C156.664 37.2812 156.159 37.0599 155.446 37.0391H154.61ZM165.038 46.5H162.741V35.125H165.038V46.5ZM175.381 37.0391H172.568V46.5H170.263V37.0391H167.498V35.125H175.381V37.0391ZM182.661 43.5156C182.661 43.0521 182.541 42.7031 182.301 42.4688C182.067 42.2292 181.637 41.9818 181.012 41.7266C179.872 41.2943 179.051 40.7891 178.551 40.2109C178.051 39.6276 177.801 38.9401 177.801 38.1484C177.801 37.1901 178.14 36.4219 178.817 35.8438C179.499 35.2604 180.364 34.9688 181.411 34.9688C182.109 34.9688 182.731 35.1172 183.278 35.4141C183.825 35.7057 184.244 36.1198 184.536 36.6562C184.832 37.1927 184.981 37.8021 184.981 38.4844H182.692C182.692 37.9531 182.577 37.5495 182.348 37.2734C182.124 36.9922 181.799 36.8516 181.372 36.8516C180.971 36.8516 180.658 36.9714 180.434 37.2109C180.21 37.4453 180.098 37.763 180.098 38.1641C180.098 38.4766 180.223 38.7604 180.473 39.0156C180.723 39.2656 181.166 39.526 181.801 39.7969C182.911 40.1979 183.715 40.6901 184.215 41.2734C184.721 41.8568 184.973 42.599 184.973 43.5C184.973 44.4896 184.658 45.263 184.028 45.8203C183.398 46.3776 182.541 46.6562 181.457 46.6562C180.723 46.6562 180.054 46.5052 179.45 46.2031C178.846 45.901 178.372 45.4688 178.028 44.9062C177.689 44.3438 177.52 43.6797 177.52 42.9141H179.825C179.825 43.5703 179.952 44.0469 180.207 44.3438C180.463 44.6406 180.879 44.7891 181.457 44.7891C182.26 44.7891 182.661 44.3646 182.661 43.5156Z" fill="#3C66BA"/>
<path d="M196.82 41.8672V46.5H195.859V35.125H199.734C200.917 35.125 201.849 35.4271 202.531 36.0312C203.219 36.6354 203.562 37.4661 203.562 38.5234C203.562 39.5911 203.232 40.4167 202.57 41C201.914 41.5781 200.961 41.8672 199.711 41.8672H196.82ZM196.82 41.0547H199.734C200.667 41.0547 201.378 40.8333 201.867 40.3906C202.357 39.9479 202.602 39.3307 202.602 38.5391C202.602 37.7526 202.357 37.1276 201.867 36.6641C201.383 36.1953 200.693 35.9557 199.797 35.9453H196.82V41.0547ZM210.742 46.5C210.648 46.2344 210.589 45.8411 210.562 45.3203C210.234 45.7474 209.815 46.0781 209.305 46.3125C208.799 46.5417 208.263 46.6562 207.695 46.6562C206.883 46.6562 206.224 46.4297 205.719 45.9766C205.219 45.5234 204.969 44.9505 204.969 44.2578C204.969 43.4349 205.31 42.7839 205.992 42.3047C206.68 41.8255 207.635 41.5859 208.859 41.5859H210.555V40.625C210.555 40.0208 210.367 39.5469 209.992 39.2031C209.622 38.8542 209.081 38.6797 208.367 38.6797C207.716 38.6797 207.177 38.8464 206.75 39.1797C206.323 39.513 206.109 39.9141 206.109 40.3828L205.172 40.375C205.172 39.7031 205.484 39.1224 206.109 38.6328C206.734 38.138 207.503 37.8906 208.414 37.8906C209.357 37.8906 210.099 38.1276 210.641 38.6016C211.188 39.0703 211.469 39.7266 211.484 40.5703V44.5703C211.484 45.388 211.57 46 211.742 46.4062V46.5H210.742ZM207.805 45.8281C208.43 45.8281 208.987 45.6771 209.477 45.375C209.971 45.0729 210.331 44.6693 210.555 44.1641V42.3047H208.883C207.951 42.3151 207.221 42.487 206.695 42.8203C206.169 43.1484 205.906 43.6016 205.906 44.1797C205.906 44.6536 206.081 45.0469 206.43 45.3594C206.784 45.6719 207.242 45.8281 207.805 45.8281ZM217.109 45.8672C217.76 45.8672 218.305 45.6849 218.742 45.3203C219.185 44.9505 219.424 44.474 219.461 43.8906H220.359C220.333 44.4062 220.172 44.8776 219.875 45.3047C219.578 45.7266 219.182 46.0573 218.688 46.2969C218.198 46.5365 217.672 46.6562 217.109 46.6562C216 46.6562 215.12 46.2708 214.469 45.5C213.823 44.7292 213.5 43.6927 213.5 42.3906V42.1094C213.5 41.276 213.646 40.5391 213.938 39.8984C214.229 39.2578 214.646 38.763 215.188 38.4141C215.734 38.0651 216.372 37.8906 217.102 37.8906C218.029 37.8906 218.792 38.1667 219.391 38.7188C219.995 39.2708 220.318 39.9974 220.359 40.8984H219.461C219.419 40.237 219.18 39.7031 218.742 39.2969C218.31 38.8906 217.763 38.6875 217.102 38.6875C216.258 38.6875 215.602 38.9922 215.133 39.6016C214.669 40.2109 214.438 41.0651 214.438 42.1641V42.4375C214.438 43.5156 214.669 44.3568 215.133 44.9609C215.602 45.5651 216.26 45.8672 217.109 45.8672ZM224.242 42.2422L223.172 43.2734V46.5H222.234V34.5H223.172V42.1797L224.055 41.2266L227.289 38.0469H228.469L224.883 41.6094L228.781 46.5H227.664L224.242 42.2422ZM235.414 46.5C235.32 46.2344 235.26 45.8411 235.234 45.3203C234.906 45.7474 234.487 46.0781 233.977 46.3125C233.471 46.5417 232.935 46.6562 232.367 46.6562C231.555 46.6562 230.896 46.4297 230.391 45.9766C229.891 45.5234 229.641 44.9505 229.641 44.2578C229.641 43.4349 229.982 42.7839 230.664 42.3047C231.352 41.8255 232.307 41.5859 233.531 41.5859H235.227V40.625C235.227 40.0208 235.039 39.5469 234.664 39.2031C234.294 38.8542 233.753 38.6797 233.039 38.6797C232.388 38.6797 231.849 38.8464 231.422 39.1797C230.995 39.513 230.781 39.9141 230.781 40.3828L229.844 40.375C229.844 39.7031 230.156 39.1224 230.781 38.6328C231.406 38.138 232.174 37.8906 233.086 37.8906C234.029 37.8906 234.771 38.1276 235.312 38.6016C235.859 39.0703 236.141 39.7266 236.156 40.5703V44.5703C236.156 45.388 236.242 46 236.414 46.4062V46.5H235.414ZM232.477 45.8281C233.102 45.8281 233.659 45.6771 234.148 45.375C234.643 45.0729 235.003 44.6693 235.227 44.1641V42.3047H233.555C232.622 42.3151 231.893 42.487 231.367 42.8203C230.841 43.1484 230.578 43.6016 230.578 44.1797C230.578 44.6536 230.753 45.0469 231.102 45.3594C231.456 45.6719 231.914 45.8281 232.477 45.8281ZM238.281 42.1953C238.281 40.8724 238.573 39.8255 239.156 39.0547C239.745 38.2786 240.542 37.8906 241.547 37.8906C242.698 37.8906 243.573 38.349 244.172 39.2656L244.219 38.0469H245.094V46.3281C245.094 47.4167 244.789 48.2786 244.18 48.9141C243.57 49.5495 242.745 49.8672 241.703 49.8672C241.115 49.8672 240.552 49.7344 240.016 49.4688C239.484 49.2083 239.065 48.8594 238.758 48.4219L239.281 47.8594C239.943 48.6719 240.729 49.0781 241.641 49.0781C242.422 49.0781 243.031 48.8464 243.469 48.3828C243.906 47.9245 244.133 47.2865 244.148 46.4688V45.4062C243.549 46.2396 242.677 46.6562 241.531 46.6562C240.552 46.6562 239.766 46.2656 239.172 45.4844C238.578 44.7031 238.281 43.6484 238.281 42.3203V42.1953ZM239.227 42.3594C239.227 43.4375 239.443 44.2891 239.875 44.9141C240.307 45.5339 240.917 45.8438 241.703 45.8438C242.854 45.8438 243.669 45.3281 244.148 44.2969V40.3672C243.93 39.8255 243.615 39.4141 243.203 39.1328C242.792 38.8464 242.297 38.7031 241.719 38.7031C240.932 38.7031 240.32 39.013 239.883 39.6328C239.445 40.2474 239.227 41.1562 239.227 42.3594ZM250.805 46.6562C250.086 46.6562 249.435 46.4792 248.852 46.125C248.273 45.7708 247.823 45.2786 247.5 44.6484C247.177 44.013 247.016 43.3021 247.016 42.5156V42.1797C247.016 41.3672 247.172 40.6354 247.484 39.9844C247.802 39.3333 248.242 38.8229 248.805 38.4531C249.367 38.0781 249.977 37.8906 250.633 37.8906C251.659 37.8906 252.471 38.2422 253.07 38.9453C253.674 39.6432 253.977 40.599 253.977 41.8125V42.3359H247.945V42.5156C247.945 43.474 248.219 44.2734 248.766 44.9141C249.318 45.5495 250.01 45.8672 250.844 45.8672C251.344 45.8672 251.784 45.776 252.164 45.5938C252.549 45.4115 252.898 45.1198 253.211 44.7188L253.797 45.1641C253.109 46.1589 252.112 46.6562 250.805 46.6562ZM250.633 38.6875C249.93 38.6875 249.336 38.9453 248.852 39.4609C248.372 39.9766 248.081 40.6693 247.977 41.5391H253.047V41.4375C253.021 40.625 252.789 39.9635 252.352 39.4531C251.914 38.9427 251.341 38.6875 250.633 38.6875Z" fill="#96A9CF"/>
<rect x="0.5" y="0.5" width="369" height="66" rx="23.5" fill="white" stroke="#6E9DFD"/>
<path d="M253.147 31.4819H253.996L254.231 29.3359H256.362L256.025 31.4819H256.919V32.6538H255.835L255.688 33.606H256.919V34.7778H255.498L254.677 40H252.495L251.982 35.7666L251.469 40H249.287L248.459 34.7778H247.104V33.606H248.276L248.122 32.6538H247.104V31.4819H247.939L247.602 29.3359H249.734L249.968 31.4819H250.832L251.067 29.3359H252.905L253.147 31.4819ZM250.195 33.606H250.598L250.7 32.6538H250.092L250.195 33.606ZM253.381 33.606H253.769L253.872 32.6538H253.279L253.381 33.606ZM250.327 34.7778L250.4 35.4443L250.473 34.7778H250.327ZM253.513 34.7778L253.579 35.3638L253.645 34.7778H253.513Z" fill="#96A9CF"/>
<path d="M259.703 33.0078L260.406 25.7812H267.291V28.1445H262.672L262.418 31.1914C262.952 30.8333 263.502 30.6543 264.068 30.6543C265.24 30.6543 266.142 31.071 266.773 31.9043C267.411 32.7376 267.73 33.916 267.73 35.4395C267.73 36.8652 267.353 38.0143 266.598 38.8867C265.842 39.7591 264.833 40.1953 263.57 40.1953C262.822 40.1953 262.128 40.0195 261.49 39.668C260.852 39.3099 260.348 38.8151 259.977 38.1836C259.612 37.5521 259.426 36.8359 259.42 36.0352H262.154C262.2 36.6276 262.346 37.0866 262.594 37.4121C262.841 37.7376 263.16 37.9004 263.551 37.9004C264.007 37.9004 264.358 37.6823 264.605 37.2461C264.853 36.8034 264.977 36.1458 264.977 35.2734C264.977 34.4531 264.827 33.8346 264.527 33.418C264.234 33.0013 263.821 32.793 263.287 32.793C262.766 32.793 262.363 32.972 262.076 33.3301L261.9 33.5742L259.703 33.0078ZM279.399 34.1211C279.399 36.0872 279.041 37.5911 278.325 38.6328C277.615 39.6745 276.599 40.1953 275.278 40.1953C273.969 40.1953 272.957 39.6908 272.241 38.6816C271.531 37.666 271.163 36.2142 271.137 34.3262V31.6406C271.137 29.681 271.492 28.1836 272.202 27.1484C272.911 26.1068 273.93 25.5859 275.258 25.5859C276.586 25.5859 277.605 26.1003 278.315 27.1289C279.024 28.1576 279.386 29.6257 279.399 31.5332V34.1211ZM276.625 31.2402C276.625 30.1204 276.515 29.2806 276.293 28.7207C276.072 28.1608 275.727 27.8809 275.258 27.8809C274.379 27.8809 273.924 28.9062 273.891 30.957V34.502C273.891 35.6478 274.002 36.5007 274.223 37.0605C274.451 37.6204 274.802 37.9004 275.278 37.9004C275.727 37.9004 276.059 37.64 276.274 37.1191C276.495 36.5918 276.612 35.7878 276.625 34.707V31.2402ZM283.753 43.584L282.278 42.8125L282.649 42.1191C283.066 41.3509 283.281 40.5762 283.294 39.7949V37.5977H285.696L285.686 39.5605C285.68 40.2507 285.504 40.9668 285.159 41.709C284.814 42.4512 284.345 43.0762 283.753 43.584ZM297.638 34.1211C297.638 36.0872 297.28 37.5911 296.564 38.6328C295.854 39.6745 294.838 40.1953 293.517 40.1953C292.208 40.1953 291.196 39.6908 290.48 38.6816C289.77 37.666 289.402 36.2142 289.376 34.3262V31.6406C289.376 29.681 289.731 28.1836 290.441 27.1484C291.15 26.1068 292.169 25.5859 293.497 25.5859C294.825 25.5859 295.844 26.1003 296.554 27.1289C297.264 28.1576 297.625 29.6257 297.638 31.5332V34.1211ZM294.864 31.2402C294.864 30.1204 294.754 29.2806 294.532 28.7207C294.311 28.1608 293.966 27.8809 293.497 27.8809C292.618 27.8809 292.163 28.9062 292.13 30.957V34.502C292.13 35.6478 292.241 36.5007 292.462 37.0605C292.69 37.6204 293.042 37.9004 293.517 37.9004C293.966 37.9004 294.298 37.64 294.513 37.1191C294.734 36.5918 294.851 35.7878 294.864 34.707V31.2402ZM309.355 34.1211C309.355 36.0872 308.997 37.5911 308.281 38.6328C307.571 39.6745 306.556 40.1953 305.234 40.1953C303.925 40.1953 302.913 39.6908 302.197 38.6816C301.487 37.666 301.119 36.2142 301.093 34.3262V31.6406C301.093 29.681 301.448 28.1836 302.158 27.1484C302.867 26.1068 303.886 25.5859 305.214 25.5859C306.543 25.5859 307.561 26.1003 308.271 27.1289C308.981 28.1576 309.342 29.6257 309.355 31.5332V34.1211ZM306.582 31.2402C306.582 30.1204 306.471 29.2806 306.25 28.7207C306.028 28.1608 305.683 27.8809 305.214 27.8809C304.336 27.8809 303.88 28.9062 303.847 30.957V34.502C303.847 35.6478 303.958 36.5007 304.179 37.0605C304.407 37.6204 304.759 37.9004 305.234 37.9004C305.683 37.9004 306.015 37.64 306.23 37.1191C306.451 36.5918 306.569 35.7878 306.582 34.707V31.2402ZM321.072 34.1211C321.072 36.0872 320.714 37.5911 319.998 38.6328C319.288 39.6745 318.273 40.1953 316.951 40.1953C315.643 40.1953 314.63 39.6908 313.914 38.6816C313.204 37.666 312.837 36.2142 312.811 34.3262V31.6406C312.811 29.681 313.165 28.1836 313.875 27.1484C314.585 26.1068 315.604 25.5859 316.932 25.5859C318.26 25.5859 319.279 26.1003 319.988 27.1289C320.698 28.1576 321.059 29.6257 321.072 31.5332V34.1211ZM318.299 31.2402C318.299 30.1204 318.188 29.2806 317.967 28.7207C317.745 28.1608 317.4 27.8809 316.932 27.8809C316.053 27.8809 315.597 28.9062 315.564 30.957V34.502C315.564 35.6478 315.675 36.5007 315.896 37.0605C316.124 37.6204 316.476 37.9004 316.951 37.9004C317.4 37.9004 317.732 37.64 317.947 37.1191C318.169 36.5918 318.286 35.7878 318.299 34.707V31.2402Z" fill="black"/>
<path d="M49.7143 38.4444C49.7143 39.3 50.3571 40 51.1429 40H56.8571C57.6429 40 58.2857 39.3 58.2857 38.4444V29.1111H49.7143V38.4444ZM59 26.7778H56.5L55.7857 26H52.2143L51.5 26.7778H49V28.3333H59V26.7778Z" fill="#757575"/>
<path d="M86.9688 32.9062L87.5312 27.125H93.0391V29.0156H89.3438L89.1406 31.4531C89.5677 31.1667 90.0078 31.0234 90.4609 31.0234C91.3984 31.0234 92.1198 31.3568 92.625 32.0234C93.1354 32.6901 93.3906 33.6328 93.3906 34.8516C93.3906 35.9922 93.0885 36.9115 92.4844 37.6094C91.8802 38.3073 91.0729 38.6562 90.0625 38.6562C89.4635 38.6562 88.9089 38.5156 88.3984 38.2344C87.888 37.9479 87.4844 37.5521 87.1875 37.0469C86.8958 36.5417 86.7474 35.9688 86.7422 35.3281H88.9297C88.9661 35.8021 89.0833 36.1693 89.2812 36.4297C89.4792 36.6901 89.7344 36.8203 90.0469 36.8203C90.4115 36.8203 90.6927 36.6458 90.8906 36.2969C91.0885 35.9427 91.1875 35.4167 91.1875 34.7188C91.1875 34.0625 91.0677 33.5677 90.8281 33.2344C90.5938 32.901 90.263 32.7344 89.8359 32.7344C89.4193 32.7344 89.0964 32.8776 88.8672 33.1641L88.7266 33.3594L86.9688 32.9062ZM106.165 28.036H109.173V32.212H106.165V28.036ZM108.725 36.516V33.892H113.221V32.212H111.269V28.036H113.269V26.356H102.069V28.036H104.069V32.212H102.149V33.892H106.613V36.516H101.029V38.212H114.373V36.516H108.725ZM129.268 25.156H127.14V35.732H129.268V25.156ZM119.3 29.828C119.3 28.612 120.164 27.908 121.252 27.908C122.356 27.908 123.188 28.612 123.188 29.828C123.188 31.012 122.356 31.732 121.252 31.732C120.164 31.732 119.3 31.012 119.3 29.828ZM125.252 29.828C125.252 27.652 123.508 26.084 121.252 26.084C118.996 26.084 117.236 27.652 117.236 29.828C117.236 31.972 118.996 33.556 121.252 33.556C123.508 33.556 125.252 31.972 125.252 29.828ZM121.572 37.94V34.692H119.46V39.62H129.636V37.94H121.572ZM144.947 32.74H136.739V31.092H144.499V29.46H136.739V27.908H144.835V26.212H134.595V34.404H144.947V32.74ZM133.027 36.468V38.18H146.371V36.468H133.027Z" fill="#3C66BA"/>
<path d="M159.83 28.196H161.622V34.932C161.03 34.98 160.406 34.996 159.83 35.012V28.196ZM162.822 28.196H164.038V27.14H157.398V28.196H158.63V35.044C158.07 35.06 157.574 35.06 157.126 35.06L157.27 36.148C159.158 36.148 162.134 36.084 164.406 35.652L164.326 34.708C163.862 34.772 163.35 34.82 162.822 34.852V28.196ZM168.214 25.348V31.108H166.342V25.652H165.11V38.964H166.342V32.18H168.214V39.684H169.462V25.348H168.214ZM173.061 26.82V27.892H178.325C178.261 28.772 178.133 29.604 177.861 30.404L172.325 30.772L172.549 31.924L177.445 31.46C176.565 33.38 174.917 35.028 172.277 36.308L172.981 37.348C178.133 34.804 179.621 30.98 179.621 26.82H173.061ZM182.453 25.332V39.684H183.765V25.332H182.453ZM191.827 27.892H195.203V26.804H187.187V27.892H190.515V29.716C190.515 32.196 188.771 34.9 186.707 35.876L187.475 36.932C189.107 36.1 190.515 34.292 191.171 32.196C191.859 34.164 193.267 35.812 194.931 36.58L195.667 35.524C193.555 34.628 191.827 32.148 191.827 29.716V27.892ZM197.139 25.348V39.684H198.451V25.348H197.139Z" fill="#96A9CF"/>
</svg>
