<svg width="16" height="13" viewBox="0 0 16 13" fill="none" xmlns="http://www.w3.org/2000/svg">
<path d="M8.00364 2.73684C10.0118 2.73684 11.6417 4.26947 11.6417 6.1579C11.6417 6.60263 11.5471 7.02 11.3797 7.41L13.5043 9.4079C14.603 8.54579 15.4688 7.43053 16 6.1579C14.7412 3.15421 11.6344 1.02632 7.99636 1.02632C6.97772 1.02632 6.00273 1.19737 5.1005 1.50526L6.67212 2.98316C7.08686 2.82579 7.5307 2.73684 8.00364 2.73684ZM0.727603 0.868947L2.38654 2.42895L2.72124 2.74368C1.51341 3.62632 0.567531 4.80316 0 6.1579C1.25875 9.16158 4.36562 11.2895 8.00364 11.2895C9.13142 11.2895 10.2083 11.0842 11.1905 10.7147L11.4961 11.0021L13.628 13L14.5521 12.1311L1.65166 0L0.727603 0.868947ZM4.75125 4.65263L5.87904 5.71316C5.84266 5.85684 5.82083 6.00737 5.82083 6.1579C5.82083 7.29368 6.79582 8.21053 8.00364 8.21053C8.16371 8.21053 8.32378 8.19 8.47658 8.15579L9.60437 9.21632C9.11687 9.44211 8.57844 9.57895 8.00364 9.57895C5.99545 9.57895 4.36562 8.04632 4.36562 6.1579C4.36562 5.61737 4.51114 5.11105 4.75125 4.65263ZM7.88722 4.11895L10.1792 6.27421L10.1937 6.16474C10.1937 5.02895 9.21874 4.11211 8.01091 4.11211L7.88722 4.11895Z" fill="#757575"/>
</svg>
