<svg width="356" height="72" viewBox="0 0 356 72" fill="none" xmlns="http://www.w3.org/2000/svg">
<path d="M44.3135 55.8164L45.7351 55.3378L45.3912 54.3164H44.3135V55.8164ZM21.1982 55.8164V54.3164H20.1171L19.7752 55.3421L21.1982 55.8164ZM16.8037 69V70.5H17.8848L18.2267 69.4743L16.8037 69ZM2.78516 69L1.3794 68.4767L0.626219 70.5H2.78516V69ZM26.6035 5.01562V3.51562H25.5613L25.1978 4.49233L26.6035 5.01562ZM38.8203 5.01562L40.2251 4.48979L39.8605 3.51562H38.8203V5.01562ZM62.7705 69V70.5H64.9336L64.1753 68.4742L62.7705 69ZM48.752 69L47.3304 69.4786L47.6742 70.5H48.752V69ZM24.7578 45.1377L23.3343 44.6649L22.6791 46.6377H24.7578V45.1377ZM40.7539 45.1377V46.6377H42.8399L42.1759 44.6602L40.7539 45.1377ZM32.7119 21.1875L34.1339 20.71L32.7041 16.4519L31.2884 20.7147L32.7119 21.1875ZM44.3135 54.3164H21.1982V57.3164H44.3135V54.3164ZM19.7752 55.3421L15.3807 68.5257L18.2267 69.4743L22.6213 56.2907L19.7752 55.3421ZM16.8037 67.5H2.78516V70.5H16.8037V67.5ZM4.19092 69.5233L28.0093 5.53892L25.1978 4.49233L1.3794 68.4767L4.19092 69.5233ZM26.6035 6.51562H38.8203V3.51562H26.6035V6.51562ZM37.4155 5.54146L61.3657 69.5258L64.1753 68.4742L40.2251 4.48979L37.4155 5.54146ZM62.7705 67.5H48.752V70.5H62.7705V67.5ZM50.1735 68.5214L45.7351 55.3378L42.8919 56.295L47.3304 69.4786L50.1735 68.5214ZM24.7578 46.6377H40.7539V43.6377H24.7578V46.6377ZM42.1759 44.6602L34.1339 20.71L31.2899 21.665L39.3319 45.6152L42.1759 44.6602ZM31.2884 20.7147L23.3343 44.6649L26.1814 45.6105L34.1355 21.6603L31.2884 20.7147ZM81.3154 69V70.5H82.8154V69H81.3154ZM68.5713 69H67.0713V70.5H68.5713V69ZM68.5713 1.5V0H67.0713V1.5H68.5713ZM81.3154 1.5H82.8154V0H81.3154V1.5ZM81.3154 67.5H68.5713V70.5H81.3154V67.5ZM70.0713 69V1.5H67.0713V69H70.0713ZM68.5713 3H81.3154V0H68.5713V3ZM79.8154 1.5V69H82.8154V1.5H79.8154ZM105.222 69V70.5H106.722V69H105.222ZM92.4775 69H90.9775V70.5H92.4775V69ZM92.4775 1.5V0H90.9775V1.5H92.4775ZM105.222 1.5H106.722V0H105.222V1.5ZM105.222 67.5H92.4775V70.5H105.222V67.5ZM93.9775 69V1.5H90.9775V69H93.9775ZM92.4775 3H105.222V0H92.4775V3ZM103.722 1.5V69H106.722V1.5H103.722ZM141.125 27.1641L139.931 26.2564L139.927 26.2615L141.125 27.1641ZM166.262 25.7578L165.132 26.7442L167.762 29.7573V25.7578H166.262ZM166.262 1.5V0H164.762V1.5H166.262ZM179.006 1.5H180.506V0H179.006V1.5ZM179.006 69V70.5H180.506V69H179.006ZM167.536 69L166.047 69.1813L166.208 70.5H167.536V69ZM166.921 63.9463L168.41 63.765L167.979 60.2229L165.75 63.0092L166.921 63.9463ZM141.213 63.2871L140.02 64.196L140.026 64.2047L141.213 63.2871ZM166.262 54.6299L167.61 55.2863L167.762 54.9755V54.6299H166.262ZM166.262 35.8652H167.762V35.5252L167.615 35.2185L166.262 35.8652ZM137.659 44.874C137.659 37.6756 139.267 32.124 142.323 28.0666L139.927 26.2615C136.362 30.9932 134.659 37.2482 134.659 44.874H137.659ZM142.319 28.0717C145.361 24.0698 149.464 22.0723 154.792 22.0723V19.0723C148.577 19.0723 143.569 21.4692 139.931 26.2564L142.319 28.0717ZM154.792 22.0723C158.992 22.0723 162.402 23.6168 165.132 26.7442L167.392 24.7714C164.086 20.9848 159.85 19.0723 154.792 19.0723V22.0723ZM167.762 25.7578V1.5H164.762V25.7578H167.762ZM166.262 3H179.006V0H166.262V3ZM177.506 1.5V69H180.506V1.5H177.506ZM179.006 67.5H167.536V70.5H179.006V67.5ZM169.025 68.8187L168.41 63.765L165.432 64.1276L166.047 69.1813L169.025 68.8187ZM165.75 63.0092C162.865 66.6155 159.22 68.3789 154.704 68.3789V71.3789C160.149 71.3789 164.649 69.1872 168.092 64.8833L165.75 63.0092ZM154.704 68.3789C149.569 68.3789 145.511 66.3936 142.399 62.3695L140.026 64.2047C143.711 68.9697 148.648 71.3789 154.704 71.3789V68.3789ZM142.406 62.3783C139.303 58.304 137.659 52.5291 137.659 44.874H134.659C134.659 52.9221 136.384 59.4225 140.02 64.1959L142.406 62.3783ZM147.359 45.7969C147.359 50.3888 148.154 54.1378 149.933 56.8574L152.444 55.2148C151.118 53.1884 150.359 50.1112 150.359 45.7969H147.359ZM149.933 56.8574C151.777 59.6756 154.517 61.0957 157.956 61.0957V58.0957C155.477 58.0957 153.705 57.1428 152.444 55.2148L149.933 56.8574ZM157.956 61.0957C160.131 61.0957 162.084 60.6358 163.747 59.6417C165.415 58.6441 166.696 57.1656 167.61 55.2863L164.913 53.9734C164.216 55.4047 163.307 56.4091 162.207 57.0668C161.101 57.728 159.707 58.0957 157.956 58.0957V61.0957ZM167.762 54.6299V35.8652H164.762V54.6299H167.762ZM167.615 35.2185C166.717 33.3388 165.452 31.8574 163.797 30.8571C162.147 29.8601 160.206 29.3994 158.044 29.3994V32.3994C159.778 32.3994 161.156 32.7664 162.245 33.4247C163.329 34.0796 164.225 35.0812 164.908 36.512L167.615 35.2185ZM158.044 29.3994C154.493 29.3994 151.699 30.8846 149.879 33.8366C148.132 36.6693 147.359 40.7256 147.359 45.7969H150.359C150.359 40.9365 151.117 37.5441 152.432 35.411C153.674 33.3971 155.472 32.3994 158.044 32.3994V29.3994ZM197.419 23.6045L196.657 22.3124L196.652 22.3153L197.419 23.6045ZM225.017 26.4609L223.972 27.5371L223.976 27.5408L225.017 26.4609ZM231.828 42.457L233.328 42.4165L233.327 42.3847L233.325 42.3529L231.828 42.457ZM231.916 45.709H233.416V45.6887L233.415 45.6685L231.916 45.709ZM225.808 63.2871L226.908 64.3067L226.911 64.303L225.808 63.2871ZM192.98 63.2871L191.88 64.3067L191.884 64.3106L192.98 63.2871ZM202.121 56.0801L200.896 56.9463L200.902 56.9534L202.121 56.0801ZM216.623 56.124L217.83 57.0144L217.836 57.0072L216.623 56.124ZM202.121 34.5029L203.346 35.3691L203.351 35.3621L202.121 34.5029ZM188.372 44.7861C188.372 40.2653 189.241 36.2932 190.943 32.8361L188.251 31.5116C186.319 35.4373 185.372 39.8734 185.372 44.7861H188.372ZM190.943 32.8361C192.636 29.3942 195.047 26.7604 198.186 24.8937L196.652 22.3153C192.994 24.4915 190.19 27.5706 188.251 31.5116L190.943 32.8361ZM198.181 24.8965C201.348 23.0287 205.048 22.0723 209.328 22.0723V19.0723C204.585 19.0723 200.345 20.1374 196.657 22.3124L198.181 24.8965ZM209.328 22.0723C215.412 22.0723 220.248 23.9213 223.972 27.5371L226.062 25.3848C221.699 21.149 216.076 19.0723 209.328 19.0723V22.0723ZM223.976 27.5408C227.73 31.1606 229.883 36.1174 230.332 42.5611L233.325 42.3529C232.835 35.3201 230.447 29.6129 226.058 25.381L223.976 27.5408ZM230.329 42.4976L230.417 45.7495L233.415 45.6685L233.328 42.4165L230.329 42.4976ZM230.416 45.709C230.416 52.7121 228.469 58.1808 224.704 62.2712L226.911 64.303C231.29 59.5458 233.416 53.2957 233.416 45.709H230.416ZM224.707 62.2676C220.961 66.3103 215.92 68.3789 209.416 68.3789V71.3789C216.623 71.3789 222.51 69.0529 226.908 64.3067L224.707 62.2676ZM209.416 68.3789C202.912 68.3789 197.854 66.3103 194.077 62.2636L191.884 64.3106C196.31 69.053 202.209 71.3789 209.416 71.3789V68.3789ZM194.081 62.2676C190.328 58.2176 188.372 52.6409 188.372 45.3574H185.372C185.372 53.1911 187.489 59.5675 191.88 64.3067L194.081 62.2676ZM188.372 45.3574V44.7861H185.372V45.3574H188.372ZM198.072 45.709C198.072 50.3761 198.946 54.1882 200.896 56.9463L203.346 55.2139C201.898 53.1672 201.072 50.0653 201.072 45.709H198.072ZM200.902 56.9534C202.909 59.7569 205.816 61.1396 209.416 61.1396V58.1396C206.688 58.1396 204.732 57.1494 203.341 55.2068L200.902 56.9534ZM209.416 61.1396C212.937 61.1396 215.801 59.7661 217.83 57.0143L215.416 55.2337C213.988 57.1695 212.047 58.1396 209.416 58.1396V61.1396ZM217.836 57.0072C219.847 54.246 220.716 50.074 220.716 44.7861H217.716C217.716 49.8693 216.856 53.256 215.411 55.2409L217.836 57.0072ZM220.716 44.7861C220.716 40.1935 219.823 36.4151 217.846 33.6339L215.4 35.372C216.88 37.4541 217.716 40.5311 217.716 44.7861H220.716ZM217.846 33.6339C215.819 30.7833 212.919 29.3555 209.328 29.3555V32.3555C212.006 32.3555 213.97 33.3593 215.4 35.372L217.846 33.6339ZM209.328 29.3555C205.76 29.3555 202.887 30.7887 200.892 33.6437L203.351 35.3621C204.754 33.3539 206.685 32.3555 209.328 32.3555V29.3555ZM200.896 33.6367C198.93 36.4173 198.072 40.5301 198.072 45.709H201.072C201.072 40.7511 201.914 37.3932 203.346 35.3691L200.896 33.6367ZM251.428 21.4512L252.924 21.3435L252.824 19.9512H251.428V21.4512ZM251.823 26.9443L250.327 27.0521L250.602 30.8719L252.995 27.8814L251.823 26.9443ZM280.52 38.2822H282.02V38.2748L282.019 38.2673L280.52 38.2822ZM280.52 69V70.5H282.02V69H280.52ZM267.819 69H266.319V70.5H267.819V69ZM266.062 32.7451L264.975 33.7796L264.982 33.7861L264.988 33.7926L266.062 32.7451ZM252.175 35.4697L250.881 34.7108L250.675 35.0623V35.4697H252.175ZM252.175 69V70.5H253.675V69H252.175ZM239.475 69H237.975V70.5H239.475V69ZM239.475 21.4512V19.9512H237.975V21.4512H239.475ZM249.932 21.5589L250.327 27.0521L253.319 26.8366L252.924 21.3435L249.932 21.5589ZM252.995 27.8814C256.092 24.0093 260.207 22.0723 265.49 22.0723V19.0723C259.348 19.0723 254.351 21.3833 250.652 26.0073L252.995 27.8814ZM265.49 22.0723C270.231 22.0723 273.494 23.4529 275.587 25.9699L277.893 24.0516C275.065 20.6506 270.827 19.0723 265.49 19.0723V22.0723ZM275.587 25.9699C277.737 28.5547 278.963 32.5794 279.02 38.2971L282.019 38.2673C281.959 32.2077 280.666 27.3847 277.893 24.0516L275.587 25.9699ZM279.02 38.2822V69H282.02V38.2822H279.02ZM280.52 67.5H267.819V70.5H280.52V67.5ZM269.319 69V38.5898H266.319V69H269.319ZM269.319 38.5898C269.319 35.7302 268.706 33.3077 267.135 31.6976L264.988 33.7926C265.761 34.5849 266.319 36.0588 266.319 38.5898H269.319ZM267.148 31.7106C265.562 30.0451 263.112 29.3994 260.217 29.3994V32.3994C262.771 32.3994 264.218 32.9841 264.975 33.7796L267.148 31.7106ZM260.217 29.3994C256.118 29.3994 252.941 31.1982 250.881 34.7108L253.469 36.2286C254.983 33.6475 257.167 32.3994 260.217 32.3994V29.3994ZM250.675 35.4697V69H253.675V35.4697H250.675ZM252.175 67.5H239.475V70.5H252.175V67.5ZM240.975 69V21.4512H237.975V69H240.975ZM239.475 22.9512H251.428V19.9512H239.475V22.9512ZM295.021 63.4629L293.972 64.5343L293.975 64.5378L295.021 63.4629ZM291.242 32.3496L292.588 33.012L292.59 33.0079L291.242 32.3496ZM299.064 23.6484L299.836 24.9347L299.839 24.9327L299.064 23.6484ZM326.003 26.7246L324.892 27.7324L324.896 27.7368L326.003 26.7246ZM331.628 49.3564V50.8564H333.128V49.3564H331.628ZM301.35 49.3564V47.8564H299.638L299.863 49.5529L301.35 49.3564ZM305.041 56.8271L304.029 57.9342L304.037 57.9413L305.041 56.8271ZM324.377 54.3223L325.496 53.3231L324.297 51.9805L323.192 53.402L324.377 54.3223ZM330.617 61.3096L331.842 62.1751L332.531 61.2005L331.736 60.3104L330.617 61.3096ZM322.883 67.6377L323.509 69.0007L323.519 68.996L322.883 67.6377ZM304.47 33.4043L303.372 32.3821L303.362 32.3924L304.47 33.4043ZM301.481 40.6992L299.996 40.4929L299.759 42.1992H301.481V40.6992ZM319.147 40.6992V42.1992H320.647V40.6992H319.147ZM319.147 39.6885H320.647V39.6729L320.647 39.6572L319.147 39.6885ZM316.862 33.1846L315.771 34.2139L315.776 34.2191L315.781 34.2242L316.862 33.1846ZM312.072 68.3789C305.432 68.3789 300.143 66.3548 296.068 62.388L293.975 64.5378C298.689 69.1257 304.767 71.3789 312.072 71.3789V68.3789ZM296.071 62.3915C292.042 58.443 289.974 53.1562 289.974 46.3682H286.974C286.974 53.8184 289.271 59.9281 293.972 64.5343L296.071 62.3915ZM289.974 46.3682V45.1377H286.974V46.3682H289.974ZM289.974 45.1377C289.974 40.5591 290.857 36.5283 292.588 33.012L289.896 31.6872C287.936 35.6709 286.974 40.1655 286.974 45.1377H289.974ZM292.59 33.0079C294.318 29.47 296.733 26.7963 299.836 24.9347L298.293 22.3622C294.657 24.5435 291.858 27.6707 289.894 31.6914L292.59 33.0079ZM299.839 24.9327C302.983 23.036 306.577 22.0723 310.666 22.0723V19.0723C306.083 19.0723 301.943 20.1594 298.289 22.3642L299.839 24.9327ZM310.666 22.0723C316.828 22.0723 321.506 23.9995 324.892 27.7324L327.114 25.7168C323.059 21.2466 317.512 19.0723 310.666 19.0723V22.0723ZM324.896 27.7368C328.315 31.4763 330.128 36.8815 330.128 44.1709H333.128C333.128 36.4017 331.191 30.176 327.11 25.7125L324.896 27.7368ZM330.128 44.1709V49.3564H333.128V44.1709H330.128ZM331.628 47.8564H301.35V50.8564H331.628V47.8564ZM299.863 49.5529C300.313 52.9609 301.684 55.7906 304.029 57.9342L306.053 55.7201C304.296 54.1137 303.207 51.9629 302.837 49.16L299.863 49.5529ZM304.037 57.9413C306.428 60.0973 309.424 61.1396 312.907 61.1396V58.1396C310.062 58.1396 307.814 57.307 306.045 55.713L304.037 57.9413ZM312.907 61.1396C318.215 61.1396 322.495 59.1894 325.562 55.2425L323.192 53.402C320.751 56.5449 317.385 58.1396 312.907 58.1396V61.1396ZM323.258 55.3214L329.498 62.3087L331.736 60.3104L325.496 53.3231L323.258 55.3214ZM329.392 60.444C327.651 62.9083 325.284 64.8563 322.246 66.2794L323.519 68.996C326.985 67.3722 329.775 65.1015 331.842 62.1751L329.392 60.444ZM322.257 66.2747C319.221 67.6695 315.834 68.3789 312.072 68.3789V71.3789C316.221 71.3789 320.041 70.5942 323.509 69.0007L322.257 66.2747ZM310.622 29.3555C307.726 29.3555 305.264 30.3504 303.372 32.3822L305.568 34.4264C306.84 33.0598 308.479 32.3555 310.622 32.3555V29.3555ZM303.362 32.3924C301.54 34.3873 300.461 37.1412 299.996 40.4929L302.967 40.9056C303.381 37.9291 304.294 35.8198 305.577 34.4162L303.362 32.3924ZM301.481 42.1992H319.147V39.1992H301.481V42.1992ZM320.647 40.6992V39.6885H317.647V40.6992H320.647ZM320.647 39.6572C320.583 36.5953 319.746 34.0197 317.944 32.1449L315.781 34.2242C316.908 35.3964 317.594 37.1566 317.648 39.7197L320.647 39.6572ZM317.953 32.1552C316.135 30.2275 313.615 29.3555 310.622 29.3555V32.3555C313.02 32.3555 314.66 33.0362 315.771 34.2139L317.953 32.1552ZM351.799 49.3564V50.8564H353.249L353.298 49.407L351.799 49.3564ZM341.252 49.3564L339.753 49.407L339.802 50.8564H341.252V49.3564ZM339.758 5.01562V3.51562H338.206L338.259 5.06614L339.758 5.01562ZM353.293 5.01562L354.792 5.06614L354.844 3.51562H353.293V5.01562ZM351.667 58.1895L350.619 59.2622L350.625 59.2681L350.631 59.2739L351.667 58.1895ZM351.667 67.8135L350.631 66.729L350.625 66.7348L350.619 66.7407L351.667 67.8135ZM341.384 67.8135L340.335 68.8863L340.341 68.8921L340.348 68.898L341.384 67.8135ZM341.384 58.2334L342.432 59.3062L342.432 59.3059L341.384 58.2334ZM351.799 47.8564H341.252V50.8564H351.799V47.8564ZM342.751 49.3059L341.257 4.96511L338.259 5.06614L339.753 49.407L342.751 49.3059ZM339.758 6.51562H353.293V3.51562H339.758V6.51562ZM351.794 4.96511L350.3 49.3059L353.298 49.407L354.792 5.06614L351.794 4.96511ZM346.525 57.7998C348.35 57.7998 349.661 58.3266 350.619 59.2622L352.715 57.1167C351.095 55.5328 348.978 54.7998 346.525 54.7998V57.7998ZM350.631 59.2739C351.629 60.2275 352.145 61.4353 352.145 63.0234H355.145C355.145 60.6858 354.342 58.671 352.703 57.105L350.631 59.2739ZM352.145 63.0234C352.145 64.575 351.633 65.7708 350.631 66.729L352.703 68.898C354.337 67.3366 355.145 65.339 355.145 63.0234H352.145ZM350.619 66.7407C349.661 67.6764 348.35 68.2031 346.525 68.2031V71.2031C348.978 71.2031 351.095 70.4701 352.715 68.8863L350.619 66.7407ZM346.525 68.2031C344.737 68.2031 343.416 67.6803 342.42 66.729L340.348 68.898C341.989 70.4662 344.095 71.2031 346.525 71.2031V68.2031ZM342.432 66.7407C341.454 65.7852 340.95 64.5859 340.95 63.0234H337.95C337.95 65.3282 338.735 67.3222 340.335 68.8863L342.432 66.7407ZM340.95 63.0234C340.95 61.461 341.454 60.2617 342.432 59.3062L340.335 57.1606C338.735 58.7246 337.95 60.7187 337.95 63.0234H340.95ZM342.432 59.3059C343.43 58.3308 344.747 57.7998 346.525 57.7998V54.7998C344.085 54.7998 341.975 55.5578 340.335 57.1609L342.432 59.3059Z" fill="#3C66BA"/>
</svg>
