<svg width="14" height="14" viewBox="0 0 14 14" fill="none" xmlns="http://www.w3.org/2000/svg">
<path d="M12.0837 1.01667L11.0671 0L10.0504 1.01667L9.03372 0L8.01706 1.01667L7.00039 0L5.98372 1.01667L4.96706 0L3.95039 1.01667L2.93372 0V9.48889H0.900391V11.5222C0.900391 12.6473 1.80861 13.5556 2.93372 13.5556H11.0671C12.1922 13.5556 13.1004 12.6473 13.1004 11.5222V0L12.0837 1.01667ZM9.03372 12.2H2.93372C2.56095 12.2 2.25595 11.895 2.25595 11.5222V10.8444H9.03372V12.2ZM11.7448 11.5222C11.7448 11.895 11.4398 12.2 11.0671 12.2C10.6943 12.2 10.3893 11.895 10.3893 11.5222V9.48889H4.28928V2.03333H11.7448V11.5222Z" fill="white"/>
</svg>
