<svg width="15" height="12" viewBox="0 0 19 16" fill="none" xmlns="http://www.w3.org/2000/svg">
<path d="M18.1952 5.23556L17.2349 1.35111C17.0337 0.551111 16.3203 0 15.4881 0H2.78456C1.96144 0 1.23892 0.56 1.04686 1.35111L0.0865517 5.23556C-0.132947 6.14222 0.0682603 7.06667 0.653591 7.79556C0.726758 7.89333 0.827362 7.96444 0.909674 8.05333V14.2222C0.909674 15.2 1.7328 16 2.73883 16H15.543C16.549 16 17.3721 15.2 17.3721 14.2222V8.05333C17.4544 7.97333 17.555 7.89333 17.6282 7.80444C18.2135 7.07556 18.4239 6.14222 18.1952 5.23556ZM15.4606 1.76889L16.421 5.65333C16.5124 6.02667 16.4301 6.4 16.1923 6.69333C16.0643 6.85333 15.7899 7.11111 15.3326 7.11111C14.7747 7.11111 14.29 6.67556 14.226 6.09778L13.6955 1.77778L15.4606 1.76889ZM10.0555 1.77778H11.8481L12.3419 5.79556C12.3877 6.14222 12.2779 6.48889 12.0401 6.74667C11.8389 6.97778 11.5462 7.11111 11.1713 7.11111C10.5585 7.11111 10.0555 6.58667 10.0555 5.94667V1.77778ZM5.93072 5.79556L6.43374 1.77778H8.22631V5.94667C8.22631 6.58667 7.7233 7.11111 7.04651 7.11111C6.73555 7.11111 6.45203 6.97778 6.23253 6.74667C6.00388 6.48889 5.89413 6.14222 5.93072 5.79556ZM1.86084 5.65333L2.78456 1.77778H4.58629L4.05583 6.09778C3.98266 6.67556 3.50708 7.11111 2.94919 7.11111C2.50104 7.11111 2.21752 6.85333 2.09863 6.69333C1.85169 6.40889 1.76938 6.02667 1.86084 5.65333ZM2.73883 14.2222V8.86222C2.812 8.87111 2.87602 8.88889 2.94919 8.88889C3.74487 8.88889 4.46739 8.56889 4.99785 8.04445C5.54659 8.57778 6.27826 8.88889 7.11053 8.88889C7.90621 8.88889 8.61958 8.56889 9.15004 8.06222C9.68964 8.56889 10.4213 8.88889 11.2444 8.88889C12.0127 8.88889 12.7443 8.57778 13.2931 8.04445C13.8235 8.56889 14.5461 8.88889 15.3417 8.88889C15.4149 8.88889 15.4789 8.87111 15.5521 8.86222V14.2222H2.73883Z" fill="#3C66BA"/>
</svg>
